HIERARCHY
ROOT Hips
{
	OFFSET	0.00	0.00	0.00
	CHANNELS 6 Xposition Yposition Zposition Zrotation Xrotation Yrotation
	JOINT LeftUpLeg
	{
		OFFSET	 0.126116	-0.014019	-0.065224
		CHANNELS 3 Zrotation Xrotation Yrotation
		JOINT LeftLeg
		{
			OFFSET	 0.000000	 0.000000	 0.569914
			CHANNELS 3 Zrotation Xrotation Yrotation
			JOINT LeftFoot
			{
				OFFSET	 0.000000	 0.000000	 0.544423
				CHANNELS 3 Zrotation Xrotation Yrotation
				JOINT LeftToeBase
				{
					OFFSET	 0.000000	 0.000000	 0.207117
					CHANNELS 3 Zrotation Xrotation Yrotation
					End Site
					{
						OFFSET	 0.000000	 0.000000	 0.207117
					}
				}
			}
		}
	}
	JOINT RightUpLeg
	{
		OFFSET	-0.124023	-0.008373	-0.065224
		CHANNELS 3 Zrotation Xrotation Yrotation
		JOINT RightLeg
		{
			OFFSET	 0.000000	 0.000000	 0.570047
			CHANNELS 3 Zrotation Xrotation Yrotation
			JOINT RightFoot
			{
				OFFSET	 0.000000	 0.000000	 0.544354
				CHANNELS 3 Zrotation Xrotation Yrotation
				JOINT RightToeBase
				{
					OFFSET	 0.000000	 0.000000	 0.207540
					CHANNELS 3 Zrotation Xrotation Yrotation
					End Site
					{
						OFFSET	 0.000000	 0.000000	 0.207540
					}
				}
			}
		}
	}
	JOINT Spine
	{
		OFFSET	 0.000184	-0.007763	 0.117403
		CHANNELS 3 Zrotation Xrotation Yrotation
		JOINT Spine1
		{
			OFFSET	 0.000000	 0.000000	 0.137269
			CHANNELS 3 Zrotation Xrotation Yrotation
			JOINT Spine2
			{
				OFFSET	 0.000000	 0.000000	 0.156879
				CHANNELS 3 Zrotation Xrotation Yrotation
				JOINT LeftShoulder
				{
					OFFSET	 0.080501	-0.002496	 0.160144
					CHANNELS 3 Zrotation Xrotation Yrotation
					JOINT LeftArm
					{
						OFFSET	 0.000000	 0.000000	 0.164363
						CHANNELS 3 Zrotation Xrotation Yrotation
						JOINT LeftForeArm
						{
							OFFSET	 0.000000	 0.000000	 0.364576
							CHANNELS 3 Zrotation Xrotation Yrotation
							JOINT LeftHand
							{
								OFFSET	 0.000000	 0.000000	 0.360812
								CHANNELS 3 Zrotation Xrotation Yrotation
								JOINT LeftHandIndex1
								{
									OFFSET	 0.000000	 0.000000	 0.086006
									CHANNELS 3 Zrotation Xrotation Yrotation
									JOINT LeftHandIndex2
									{
										OFFSET	 0.000000	 0.000000	 0.047237
										CHANNELS 3 Zrotation Xrotation Yrotation
										JOINT LeftHandIndex3
										{
											OFFSET	-0.004284	-0.000551	 0.038165
											CHANNELS 3 Zrotation Xrotation Yrotation
											End Site
											{
												OFFSET	-0.004284	-0.000551	 0.038165
											}
										}
									}
								}
							}
						}
					}
				}
				JOINT Neck
				{
					OFFSET	 0.000000	 0.000000	 0.176489
					CHANNELS 3 Zrotation Xrotation Yrotation
					JOINT Head
					{
						OFFSET	 0.000000	-0.001747	 0.077940
						CHANNELS 3 Zrotation Xrotation Yrotation
						End Site
						{
							OFFSET	 0.000000	-0.001747	 0.077940
						}
					}
				}
				JOINT RightShoulder
				{
					OFFSET	-0.080363	 0.000306	 0.159706
					CHANNELS 3 Zrotation Xrotation Yrotation
					JOINT RightArm
					{
						OFFSET	 0.000000	 0.000000	 0.164196
						CHANNELS 3 Zrotation Xrotation Yrotation
						JOINT RightForeArm
						{
							OFFSET	 0.000000	 0.000000	 0.365611
							CHANNELS 3 Zrotation Xrotation Yrotation
							JOINT RightHand
							{
								OFFSET	 0.000000	 0.000000	 0.360648
								CHANNELS 3 Zrotation Xrotation Yrotation
								JOINT RightHandIndex1
								{
									OFFSET	 0.000000	 0.000000	 0.069977
									CHANNELS 3 Zrotation Xrotation Yrotation
									JOINT RightHandIndex2
									{
										OFFSET	 0.000000	 0.000000	 0.052305
										CHANNELS 3 Zrotation Xrotation Yrotation
										JOINT RightHandIndex3
										{
											OFFSET	 0.009002	-0.000782	 0.042196
											CHANNELS 3 Zrotation Xrotation Yrotation
											End Site
											{
												OFFSET	 0.009002	-0.000782	 0.042196
											}
										}
									}
								}
							}
						}
					}
				}
			}
		}
	}
}
MOTION
Frames:    6
Frame Time: 0.03333334
-0.719308	-1.660692	 1.275290	-178.072000	 4.648276	 0.061899	 0.946405	-7.021879	 177.620400	 0.299989	-12.523160	 0.488569	-25.272250	 61.128140	 13.504400	-2.385833	 28.452760	 0.000004	-10.987680	-8.451393	-178.930800	-6.986282	-14.395390	 0.974491	 20.269330	 71.518670	-10.194750	 2.384659	 28.388700	-0.000001	-5.454885	 4.976142	 1.487222	-3.382509	-4.358714	-13.731210	 9.421001	-10.012240	 16.609070	-91.776150	 78.527380	 180.000000	-25.537670	-10.260250	-14.917520	-4.866819	-0.086152	-0.479735	 9.555903	-1.778499	-4.905860	-4.131196	 21.524690	 0.986298	-5.167839	 0.733520	 3.519257	-1.378229	 35.397820	-2.634230	 1.384869	 4.399344	-0.143810	-14.186180	-4.420681	-3.389754	 89.782110	 78.203850	 180.000000	-0.759146	-3.872570	 7.845048	-4.081350	-0.143700	 0.472613	-20.059590	 22.551370	 71.367150	 5.715225	 19.176060	-3.692089	 5.027514	 0.245388	-9.378011	-2.350882	 35.473990	 5.254307
-0.719458	-1.660366	 1.275460	-177.865300	 5.034892	-0.007395	 1.150204	-7.498024	 177.677500	-0.154539	-12.695800	 0.395177	-24.356550	 60.289560	 13.200320	-2.385833	 28.452760	 0.000004	-11.397340	-8.998541	-178.938700	-5.895312	-14.587430	 1.263555	 16.302570	 71.944220	-6.978196	 2.384659	 28.388700	-0.000001	-5.760562	 5.432926	 1.732202	-3.448400	-5.941024	-14.648170	 9.414336	-9.341967	 17.264840	-91.776180	 78.527420	-180.000000	-28.029120	-9.621843	-15.392940	-4.747843	-0.087842	-0.483078	 9.591268	-1.921837	-4.815438	-4.131196	 21.524690	 0.986298	-5.167839	 0.733520	 3.519257	-1.378229	 35.397820	-2.634230	 1.524149	 5.215014	-0.170915	-14.172130	-5.770872	-3.821221	 89.782140	 78.203890	 180.000000	-0.890207	-3.504637	 7.870967	-5.162309	-0.153666	 0.473056	-21.879820	 23.223340	 75.510650	 5.715225	 19.176060	-3.692089	 5.027514	 0.245388	-9.378011	-2.350882	 35.473990	 5.254307
-0.719240	-1.659358	 1.275580	-177.504300	 5.604162	-0.278136	 1.543292	-8.254778	 177.879200	-0.698305	-13.206340	 0.286493	-23.217750	 58.985750	 12.918150	-2.385833	 28.452760	 0.000004	-11.433300	-10.018190	-178.773100	-4.655977	-15.181290	 1.641306	 10.794940	 73.541310	-2.129132	 2.384659	 28.388700	-0.000001	-6.349977	 5.980082	 2.136713	-3.670564	-7.975076	-15.707070	 9.379504	-8.489154	 17.984620	-91.776200	 78.527360	-180.000000	-31.964960	-8.351541	-15.910010	-4.734117	-0.088444	-0.486160	 9.382500	-2.237330	-4.644518	-4.131196	 21.524690	 0.986298	-5.167839	 0.733520	 3.519257	-1.378229	 35.397820	-2.634230	 1.675973	 6.421371	-0.098404	-14.118650	-7.643813	-4.395281	 89.782120	 78.203900	 180.000000	-1.143687	-2.741521	 8.070876	-6.644027	-0.167031	 0.472419	-24.606860	 24.264890	 81.856380	 5.715225	 19.176060	-3.692089	 5.027514	 0.245388	-9.378011	-2.350882	 35.473990	 5.254307
-0.715997	-1.654308	 1.274799	-176.774100	 6.414581	-1.561098	 2.538662	-9.712543	 178.658200	-0.824026	-15.773770	 0.306701	-23.168770	 57.475670	 13.867770	-2.385833	 28.452760	 0.000004	-8.416328	-12.618180	-177.393500	-4.821872	-17.686580	 1.853002	 6.654469	 79.716730	 2.900058	 2.384659	 28.388700	-0.000001	-8.009622	 6.270582	 3.176533	-4.776291	-9.436416	-16.270990	 9.339369	-7.832379	 17.963000	-91.776190	 78.527430	-180.000000	-35.852550	-2.212168	-3.129588	-6.421093	-4.023035	-24.816400	 7.976492	-3.087089	-4.267770	-4.131196	 21.524690	 0.986298	-5.167839	 0.733520	 3.519257	-1.378229	 35.397820	-2.634230	 1.590871	 7.889057	 0.553828	-13.826620	-9.322224	-4.794526	 89.782030	 78.203920	-180.000000	-2.264627	 1.908048	 1.153919	-6.944974	-6.205442	 16.735600	-25.336570	 32.279120	 84.042330	 5.715225	 19.176060	-3.692089	 5.027514	 0.245388	-9.378011	-2.350882	 35.473990	 5.254307
-0.714497	-1.652025	 1.274397	-176.620000	 6.598992	-1.850650	 2.682489	-10.200000	 178.680000	-0.643860	-17.020500	 0.383003	-23.929450	 57.348490	 14.819510	-2.385833	 28.452760	 0.000004	-7.478074	-13.355450	-176.983600	-5.062833	-18.374780	 1.845905	 6.780540	 81.309110	 3.095020	 2.384659	 28.388700	-0.000001	-8.557581	 6.133466	 3.399568	-5.254347	-9.061386	-16.605940	 9.447674	-7.979514	 18.103850	-91.776180	 78.527400	-180.000000	-35.912370	 0.281554	 3.332215	-7.610749	-5.581410	-36.687950	 7.654743	-3.299134	-4.170597	-4.131196	 21.524690	 0.986298	-5.167839	 0.733520	 3.519257	-1.378229	 35.397820	-2.634230	 1.548811	 8.115565	 0.743371	-13.746670	-9.507437	-4.816918	 89.782150	 78.203920	 180.000000	-2.746798	 4.232612	-2.825946	-5.845446	-9.480389	 25.983170	-23.438640	 35.218620	 80.739590	 5.715225	 19.176060	-3.692089	 5.027514	 0.245388	-9.378011	-2.350882	 35.473990	 5.254307
-0.710494	-1.646026	 1.273252	-176.496900	 6.755525	-2.188006	 2.488145	-11.007390	 178.249600	 0.331587	-20.109040	 0.785516	-27.226860	 57.692030	 18.082110	-2.385833	 28.452760	 0.000004	-5.481613	-14.963420	-176.282000	-6.017960	-20.268650	 1.694978	 18.392090	 83.780720	-7.727358	 2.384659	 28.388700	-0.000001	-9.699673	 5.388986	 3.590096	-6.443162	-6.344378	-17.328730	 9.943114	-9.153708	 18.551700	-91.776190	 78.527380	 180.000000	-33.090690	 5.127395	 15.291670	-10.236460	-7.480907	-57.115150	 7.271756	-3.530004	-4.035818	-4.131196	 21.524690	 0.986298	-5.167839	 0.733520	 3.519257	-1.378229	 35.397820	-2.634230	 1.433754	 8.003372	 1.089726	-13.605930	-9.046534	-4.622969	 89.782140	 78.203920	 180.000000	-3.957673	 9.376547	-8.280560	-2.612644	-14.004340	 41.223340	-18.651200	 36.532230	 70.354030	 5.715225	 19.176060	-3.692089	 5.027514	 0.245388	-9.378011	-2.350882	 35.473990	 5.254307
